<?xml version="1.0" encoding="utf-8"?>
<!-- Generator: Adobe Illustrator 21.1.0, SVG Export Plug-In . SVG Version: 6.00 Build 0)  -->
<svg version="1.1"
	 id="svg2" xmlns:cc="http://creativecommons.org/ns#" xmlns:dc="http://purl.org/dc/elements/1.1/" xmlns:rdf="http://www.w3.org/1999/02/22-rdf-syntax-ns#" xmlns:svg="http://www.w3.org/2000/svg"
	 xmlns="http://www.w3.org/2000/svg" xmlns:xlink="http://www.w3.org/1999/xlink" x="0px" y="0px" viewBox="0 0 1914.7 474.7"
	 enable-background="new 0 0 1914.7 474.7" xml:space="preserve">
<path id="path30" fill="#1F4762" d="M165.9,459.3H97.9L17.7,225.8h67.9l46,141l46-141h63.5l46,141l46-141h68.4l-80.2,233.4h-68.4
	l-43.4-127.1L165.9,459.3z"/>
<path id="path42" fill="#46B44E" d="M1173,278.3c-16.1,0-30.3,5.2-42.7,15.6c-12.4,10.4-18.6,24.9-18.6,43.4c0,3.5,0.1,6.1,0.4,7.8
	l102.6-41.2C1210.8,286.9,1196.9,278.3,1173,278.3 M1170.8,409.4c12.6,0,24.8-3.1,36.6-9.3c11.8-6.2,21.3-14.5,28.3-25l37.7,40.4
	c-30.1,31.5-64.1,47.3-101.9,47.3c-37.8,0-68-11.4-90.5-34.3c-22.5-22.8-33.7-52-33.7-87.4c0-35.4,12.3-64.1,37-86.1
	c24.7-22,53.1-33,85.2-33c32.1,0,59,9,80.6,26.9c21.6,17.9,33.3,41.1,35.1,69.4v8.2l-156.9,64.2
	C1138.2,403.1,1152.4,409.4,1170.8,409.4"/>
<path id="path38" fill="#46B44E" d="M877.6,278.3c-16.1,0-30.3,5.2-42.7,15.6c-12.4,10.4-18.6,24.9-18.6,43.4c0,3.5,0.1,6.1,0.4,7.8
	l102.6-41.2C915.4,286.9,901.5,278.3,877.6,278.3 M875.4,409.4c12.6,0,24.8-3.1,36.6-9.3c11.8-6.2,21.3-14.5,28.3-25l37.7,40.4
	c-30.1,31.5-64.1,47.3-101.9,47.3c-37.8,0-68-11.4-90.5-34.3c-22.5-22.8-33.7-52-33.7-87.4c0-35.4,12.3-64.1,37-86.1
	c24.7-22,53.1-33,85.2-33c32.1,0,59,9,80.6,26.9c21.6,17.9,33.3,41.1,35.1,69.4v8.2l-156.9,64.2C842.8,403.1,857,409.4,875.4,409.4"
	/>
<path id="path34" fill="#1F4762" d="M527,333.4v125.8h-65.7v-322H527v114.6c19.9-20,42.1-29.9,66.8-29.9c24.7,0,45.5,8.7,62.4,26
	c16.9,17.4,25.4,40.5,25.4,69.4v141.9h-65.7V331.7c0-35.9-13.3-53.8-39.9-53.8c-13.1,0-24.6,4.7-34.4,14.1
	C531.9,301.4,527,315.2,527,333.4"/>
<path id="path46" fill="#1F4762" d="M1421,156v221.3c0,9,2.3,16,7,21c4.7,5.1,10.2,7.6,16.7,7.6c12.3,0,19.5-2.3,27.9-13.3
	l27.7,42.4c-20.5,18.5-42,27.8-64.6,27.8c-22.6,0-41.8-7.4-57.4-22.1c-15.6-14.8-23.4-34.9-23.4-60.3V156H1421z"/>
<path id="path48" fill="#1F4762" d="M1624.4,459.3h-65.7V225.8h65.7V459.3z M1564.1,196.1c-7.5-7.4-11.2-16.4-11.2-27.1
	c0-10.7,3.7-19.7,11.2-27.1c7.4-7.4,16.6-11.1,27.4-11.1c10.8,0,19.9,3.7,27.4,11.1c7.5,7.4,11.2,16.4,11.2,27.1
	c0,10.7-3.7,19.7-11.2,27.1c-7.4,7.4-16.6,11.1-27.4,11.1C1580.7,207.2,1571.5,203.5,1564.1,196.1"/>
<path id="path52" fill="#1F4762" d="M1821.6,359l-41.2,46h121v54.2h-205.1v-53.8l41.2-46.4l31.1-35.1l39-43.8h-103v-53.8h190.2V277
	l-42.1,46.9L1821.6,359z"/>
<path id="path26" fill="#1F4762" d="M786.2,150.7c0,0-4.4-55.2,54.1-79.4C840.4,71.3,802.3,90.6,786.2,150.7"/>
<path id="path22" fill="#1F4762" d="M1300.2,213.4c-4.8-22.8-16.9-33.8-46.7-51.7c-36.6-22-69.5-18-110.5-15.8
	c-32.7,1.8-39.2-29-51.4-54.7c-12.9-27.1-33.3-64.7-63.5-74.2c-15-4.7-44.1-2.3-59.5-2.3c-26.7,0-53.4,0.6-80.1,1.5
	c-19.7,0.7-39.7,1.1-59.3,3.3c-26.3,3-51.5,27.6-66.7,47.9c-37.5,50-32.7,125.2-32.6,184.3l31.8-15.9c-0.1-67.7-5.9-135.6,57.4-178
	c3.3-2.2,7.2-5.8,11.2-6.5c-1.7,0.3,1.2-0.1,4.7-0.5c9.8-0.9,19.7-1.3,29.6-1.8c26.5-1.2,52.9-1.9,79.4-2.3
	c21-0.3,51.6-0.8,72.5,0.6c5.7,0.4,0.7-0.2,3,0.3c-8.8-2.1,4.8,2.7,6.1,3.4c4.1,2.2,7.9,4.9,11.5,7.8c12.6,10.2,20,34,26.9,48.3
	c14.1,29.4,22.1,56,53.9,68.4c12.1,4.7,27.8,2,40.3,1.1c21.6-1.5,36-4.1,56.9,2.2c17.1,5.2,40.2,18.9,52,32.3"/>
</svg>
